<?xml version="1.0" encoding="utf-8"?>
<!DOCTYPE svg PUBLIC "-//W3C//DTD SVG 1.1//EN" "http://www.w3.org/Graphics/SVG/1.1/DTD/svg11.dtd">
<svg version="1.1" id="Laser"
	xmlns="http://www.w3.org/2000/svg"
	xmlns:xlink="http://www.w3.org/1999/xlink" x="0px" y="0px" width="125px" height="95px" viewBox="0 0 125 95" 
	xml:space="preserve">
	<rect width="27.852" height="94.302"/>
	<polygon points="66.771,81.715 66.771,75.527 66.771,69.126 66.771,62.939 66.771,56.539 66.771,50.351 66.771,43.951 
	66.771,37.763 66.771,31.363 66.771,25.175 66.771,18.775 66.771,12.588 66.771,6.188 66.771,0 54.259,0 32.707,0 32.707,6.188 
	54.259,6.188 54.259,12.588 32.707,12.588 32.707,18.775 54.259,18.775 54.259,25.175 32.707,25.175 32.707,31.363 54.259,31.363 
	54.259,37.763 32.707,37.763 32.707,43.951 54.259,43.951 54.259,50.351 32.707,50.351 32.707,56.539 54.259,56.539 54.259,62.939 
	32.707,62.939 32.707,69.126 54.259,69.126 54.259,75.527 32.707,75.527 32.707,81.715 54.259,81.715 54.259,88.114 32.707,88.114 
	32.707,94.302 54.259,94.302 66.771,94.302 66.771,88.114 "/>
	<polygon points="71.823,4.91 71.823,47.151 71.823,89.393 99.674,89.393 124.589,69.31 124.589,47.151 124.589,24.992 99.674,4.91"/>
</svg>
