<svg xmlns="http://www.w3.org/2000/svg" width="16" height="16" fill="currentColor" class="bi bi-wrongColor" viewBox="0 0 16 16">
  <path id="svgWrongColorBrush" d="m12.98397,2.9876a0.32402,0.32402 0 0 1 0.08554,0.37845c-0.9915,2.22276 -3.07364,5.29446 -4.59782,6.8951a3.93164,3.93164 0 0 1 -1.53779,0.99409c-0.01166,0.1471 -0.03888,0.34864 -0.10369,0.5625c-0.13026,0.42706 -0.43224,0.95845 -1.10685,1.12758a5.26011,5.26011 0 0 1 -1.99466,0.08554a2.37052,2.37052 0 0 1 -0.36484,-0.08748a0.89559,0.89559 0 0 1 -0.30134,-0.16006a0.4627,0.4627 0 0 1 -0.1322,-0.18663a0.40308,0.40308 0 0 1 0.00259,-0.28708c0.06156,-0.15877 0.20478,-0.24625 0.29874,-0.29291c0.25468,-0.12766 0.40502,-0.29356 0.56185,-0.53528c0.06092,-0.09332 0.11924,-0.19247 0.18599,-0.30587l0.07582,-0.12831c0.09785,-0.16525 0.21126,-0.34994 0.35383,-0.54953c0.34216,-0.4789 0.77764,-0.59943 1.13147,-0.58064c0.08165,0.00454 0.15747,0.0162 0.22552,0.03111c0.04018,-0.11146 0.09202,-0.24625 0.15423,-0.39401c0.16914,-0.40113 0.42641,-0.91956 0.76922,-1.34079c1.40948,-1.73026 4.00486,-4.02171 5.90815,-5.25168a0.32402,0.32402 0 0 1 0.38623,0.02592zm-7.20616,7.64164a0.79708,0.79708 0 0 0 -0.27153,-0.0648c-0.16006,-0.00842 -0.37197,0.0324 -0.57027,0.31041a7.13488,7.13488 0 0 0 -0.32402,0.50352l-0.0674,0.1147c-0.06934,0.11729 -0.13803,0.23459 -0.20737,0.34216c-0.1335,0.20543 -0.28384,0.3953 -0.49251,0.55796a4.61855,4.61855 0 0 0 1.72183,-0.07776c0.36225,-0.09008 0.54629,-0.36873 0.6435,-0.68692a2.02252,2.02252 0 0 0 0.08165,-0.48603l-0.51389,-0.51324zm0.93317,0.01685c0.07776,-0.02592 0.17951,-0.0648 0.2968,-0.11859a3.28425,3.28425 0 0 0 0.99474,-0.71284c1.23127,-1.29348 2.85914,-3.60956 3.92191,-5.5932c-1.67906,1.24877 -3.60697,3.01985 -4.73196,4.40146c-0.28643,0.35188 -0.51584,0.80551 -0.67525,1.18331a7.45695,7.45695 0 0 0 -0.17886,0.46723l0.37262,0.37262zm-3.22268,1.97003l0.00454,-0.00324a0.02009,0.02009 0 0 1 -0.00454,0.00259l0,0.00065zm2.32127,-1.97197l0.0013,0.00065l-0.0013,0l0,-0.00065z"/>
  <rect id="svgWrongColorFold" transform="rotate(-49, 14.6136, 13.9644)" height="5.19336" width="10.65721" y="11.36777" x="9.28505" fill='var(--goalBlockColor)' />
</svg>